<?xml version="1.0" encoding="UTF-8"?><svg id="Ebene_2" xmlns="http://www.w3.org/2000/svg" viewBox="0 0 1604.56 1606.02"><defs><style>.cls-1{fill:#fff;}</style></defs><g id="Ebene_1-2"><path class="cls-1" d="m759.92,191.94l.19,24.02c.29,37.67,12.44,54.5,38.64,54.3,25.12-.2,35.36-16.66,35.2-37.95v-1.09c-.11-12.56,7.47-20.81,18.94-20.9,12.01-.09,19.17,8.04,19.27,20.6l.04,4.91c.32,40.95-24.01,71.72-73.15,72.1-50.23.39-78.86-30.51-79.29-85.11l-1.06-136.5C718.27,31.73,746.42.39,795.56,0s76.68,30.53,77.1,85.13l.56,72.62c.18,22.93-9.57,33.38-33.05,33.56l-80.26.62Zm-.77-99.37l.47,60.6,74.25-.58-.47-60.6c-.29-37.67-12.44-54.51-37.55-54.31-25.12.2-37,17.21-36.7,54.89Z"/><path class="cls-1" d="m1028.32,262.57l67.19-117.56c27.09-47.4,67.19-60.33,109.85-35.95,42.66,24.38,48.75,59.94,29.79,93.12l-2.71,4.74c-5.69,9.95-15.92,13.54-26.34,7.58-9.96-5.69-12.05-16.32-6.91-25.33l.27-.47c10.57-18.49,8.54-34.74-12.79-46.93-21.8-12.46-40.63-3.73-59.33,28.98l-60.69,106.18c-18.69,32.71-16.66,53.36,5.14,65.83,21.81,12.46,36.64,5.22,46.93-12.79l.27-.47c5.42-9.48,15.92-13.54,25.87-7.85,10.43,5.96,12.26,17.07,7.11,26.07l-3.52,6.16c-18.97,33.18-52.69,45.98-95.35,21.59-42.66-24.38-51.87-65.49-24.78-112.9Z"/><path class="cls-1" d="m1265.5,445.13l119.04-69.01c47.24-27.38,88.4-18.43,113.05,24.08,24.65,42.51,11.96,82.68-35.28,110.07l-119.04,69.01c-47.24,27.38-88.4,18.43-113.05-24.08-24.64-42.51-11.96-82.68,35.28-110.07Zm63.17,95.91l107.7-62.43c32.59-18.89,41.21-37.78,28.62-59.5-12.6-21.73-33.26-23.63-65.86-4.74l-107.7,62.43c-32.59,18.89-41.21,37.78-28.62,59.5,12.6,21.73,33.26,23.63,65.86,4.74Z"/><path class="cls-1" d="m1384.19,735.46l135.4,1.31c54.6.53,85.44,29.22,84.97,78.36s-28.54,71.8-66.76,71.43l-5.46-.05c-11.47-.11-19.59-7.29-19.47-19.3.11-11.47,8.37-18.48,18.74-18.38h.54c21.29.21,34.49-9.49,34.73-34.06.24-25.12-16.56-37.29-54.24-37.66l-122.3-1.19c-37.67-.37-54.71,11.48-54.96,36.6-.24,25.11,13.32,34.53,34.06,34.73h.54c10.92.11,19.59,7.29,19.48,18.76-.12,12.01-8.92,19.02-19.29,18.92l-7.1-.07c-38.22-.37-65.84-23.57-65.37-72.71s31.87-77.23,86.47-76.7Z"/><path class="cls-1" d="m1341.2,1031.66l118.4,70.09c46.98,27.81,59.3,68.1,34.27,110.38-25.03,42.29-66.28,50.87-113.26,23.05l-118.4-70.09c-46.98-27.81-59.3-68.1-34.27-110.38,25.03-42.29,66.28-50.87,113.26-23.05Zm-52.77,102l107.13,63.41c32.42,19.19,53.1,17.48,65.9-4.14,12.79-21.61,4.35-40.57-28.07-59.76l-107.13-63.41c-32.42-19.19-53.1-17.47-65.9,4.14-12.79,21.61-4.35,40.57,28.07,59.76Z"/><path class="cls-1" d="m1113.54,1223.34l98.73,174.37c26.9,47.51,18.42,86.83-22.44,109.96-40.39,22.87-75.76,10.27-104.27-40.1l-6.46-11.4c-6.19-10.93-2.62-22.36,6.88-27.74,9.03-5.11,21.14-2.56,27.33,8.37l4.04,7.13c17.76,31.36,33.02,42.8,52.5,31.77,19.96-11.3,22.61-31,4.04-63.78l-95.5-168.67c-5.38-9.5-1.88-22.15,7.63-27.53,9.5-5.38,22.15-1.88,27.53,7.63Z"/><path class="cls-1" d="m834.79,1414.67l.19-24.02c.3-37.67-11.58-54.69-37.79-54.9-25.12-.2-35.62,16.1-35.79,37.39v1.09c-.11,12.56-7.82,20.69-19.28,20.6-12.01-.09-19.04-8.34-18.95-20.9l.04-4.91c.32-40.95,25.13-71.33,74.27-70.95,50.23.39,78.38,31.74,77.95,86.34l-1.07,136.5c-.43,54.6-29.06,85.5-78.2,85.11-49.14-.39-76.19-31.72-75.77-86.32l.57-72.62c.18-22.93,10.09-33.23,33.57-33.04l80.26.63Zm-.78,99.37l.48-60.6-74.25-.58-.48,60.61c-.3,37.67,11.58,54.69,36.7,54.89,25.12.2,37.26-16.63,37.56-54.31Z"/><path class="cls-1" d="m567.55,1339.84l-69.03,116.49c-27.83,46.97-68.12,59.27-110.4,34.22s-47.81-60.7-28.33-93.58l2.78-4.7c5.84-9.86,16.13-13.29,26.46-7.17,9.86,5.85,11.8,16.51,6.51,25.43l-.28.47c-10.85,18.32-9.08,34.6,12.06,47.13,21.61,12.8,40.57,4.37,59.77-28.05l62.35-105.22c19.21-32.41,17.5-53.1-4.11-65.9s-36.55-5.79-47.13,12.06l-.28.47c-5.57,9.39-16.13,13.29-25.99,7.45-10.33-6.12-11.99-17.26-6.7-26.18l3.62-6.11c19.48-32.88,53.41-45.15,95.68-20.1s50.84,66.3,23,113.27Z"/><path class="cls-1" d="m333.25,1153.59l-120.11,67.13c-47.66,26.64-88.68,17.04-112.65-25.86-23.98-42.89-10.66-82.86,37-109.5l120.1-67.13c47.66-26.64,88.68-17.04,112.65,25.86,23.97,42.89,10.66,82.86-37,109.5Zm-61.66-96.89l-108.67,60.74c-32.89,18.38-41.8,37.12-29.55,59.05,12.25,21.92,32.89,24.15,65.78,5.77l108.67-60.74c32.89-18.38,41.8-37.12,29.55-59.05s-32.89-24.15-65.77-5.77Z"/><path class="cls-1" d="m219.13,861.46l-135.36-3.42C29.19,856.65-1.21,827.48.04,778.36s29.66-71.34,67.87-70.38l5.46.14c11.46.29,19.47,7.59,19.17,19.6-.29,11.46-8.66,18.35-19.03,18.09h-.55c-21.29-.55-34.64,8.94-35.26,33.5-.64,25.11,15.98,37.54,53.64,38.5l122.26,3.09c37.66.95,54.89-10.63,55.52-35.73.64-25.11-12.78-34.73-33.52-35.26h-.55c-10.92-.29-19.47-7.61-19.18-19.07.3-12.01,9.22-18.88,19.59-18.62l7.1.18c38.21.97,65.46,24.59,64.22,73.72-1.24,49.12-33.07,76.72-87.65,75.34Z"/><path class="cls-1" d="m266.76,565.93l-117.29-71.94c-46.54-28.55-58.23-69.02-32.54-110.91,25.69-41.89,67.07-49.82,113.61-21.27l117.29,71.94c46.54,28.55,58.23,69.02,32.54,110.91-25.69,41.89-67.07,49.82-113.61,21.27Zm54.36-101.17l-106.12-65.09c-32.12-19.7-52.82-18.31-65.96,3.1-13.13,21.41-4.98,40.5,27.13,60.2l106.12,65.09c32.12,19.7,52.82,18.31,65.96-3.1,13.13-21.41,4.98-40.5-27.13-60.2Z"/><path class="cls-1" d="m497.36,377.85l-95.98-175.9c-26.15-47.93-17.05-87.1,24.16-109.6,40.74-22.23,75.91-9.08,103.63,41.73l6.28,11.5c6.02,11.02,2.27,22.4-7.32,27.63-9.11,4.97-21.18,2.23-27.19-8.8l-3.92-7.19c-17.26-31.63-32.34-43.31-51.99-32.58-20.13,10.98-23.09,30.64-5.04,63.71l92.85,170.14c5.23,9.58,1.53,22.18-8.06,27.41s-22.18,1.53-27.41-8.06Z"/></g></svg>